<svg xmlns="http://www.w3.org/2000/svg" viewBox="0 0 32 32" width="32" height="32">
  <!-- Background circle -->
  <circle cx="16" cy="16" r="15" fill="#1e40af" stroke="#1d4ed8" stroke-width="2"/>
  
  <!-- Ship body -->
  <path d="M8 20 Q8 18 10 18 L22 18 Q24 18 24 20 L26 22 Q26 24 24 24 L8 24 Q6 24 6 22 Z" fill="#f59e0b"/>
  
  <!-- Ship deck -->
  <rect x="10" y="18" width="12" height="2" fill="#d97706"/>
  
  <!-- Main mast -->
  <line x1="16" y1="18" x2="16" y2="8" stroke="#8b5cf6" stroke-width="1.5"/>
  
  <!-- Main sail -->
  <path d="M12 8 Q16 6 20 8 L20 14 Q16 16 12 14 Z" fill="#ffffff" stroke="#e5e7eb" stroke-width="0.5"/>
  
  <!-- Front sail -->
  <path d="M8 10 Q11 8 14 10 L14 15 Q11 17 8 15 Z" fill="#f3f4f6" stroke="#e5e7eb" stroke-width="0.5"/>
  
  <!-- Flag -->
  <path d="M17 8 L17 11 L21 10 Z" fill="#ef4444"/>
  
  <!-- Waves -->
  <path d="M4 26 Q6 25 8 26 Q10 27 12 26 Q14 25 16 26 Q18 27 20 26 Q22 25 24 26 Q26 27 28 26" 
        stroke="#3b82f6" stroke-width="1.5" fill="none"/>
</svg>